HIERARCHY
ROOT Hips
{
	OFFSET 0.00000 0.00000 0.00000
	CHANNELS 6 Xposition Yposition Zposition Zrotation Yrotation Xrotation 
	JOINT LHipJoint
	{
		OFFSET 0 0 0
		CHANNELS 3 Zrotation Yrotation Xrotation
		JOINT LeftUpLeg
		{
			OFFSET 1.52977 -1.71332 0.88991
			CHANNELS 3 Zrotation Yrotation Xrotation
			JOINT LeftLeg
			{
				OFFSET 2.23949 -6.15296 0.00000
				CHANNELS 3 Zrotation Yrotation Xrotation
				JOINT LeftFoot
				{
					OFFSET 2.68396 -7.37412 0.00000
					CHANNELS 3 Zrotation Yrotation Xrotation
					JOINT LeftToeBase
					{
						OFFSET 0.20538 -0.56428 2.52710
						CHANNELS 3 Zrotation Yrotation Xrotation
						End Site
						{
							OFFSET 0.00000 -0.00000 1.29919
						}
					}
				}
			}
		}
	}
	JOINT RHipJoint
	{
		OFFSET 0 0 0
		CHANNELS 3 Zrotation Yrotation Xrotation
		JOINT RightUpLeg
		{
			OFFSET -1.45689 -1.71333 0.88991
			CHANNELS 3 Zrotation Yrotation Xrotation
			JOINT RightLeg
			{
				OFFSET -2.36700 -6.50329 0.00000
				CHANNELS 3 Zrotation Yrotation Xrotation
				JOINT RightFoot
				{
					OFFSET -2.69814 -7.41308 0.00000
					CHANNELS 3 Zrotation Yrotation Xrotation
					JOINT RightToeBase
					{
						OFFSET -0.18734 -0.51471 2.37479
						CHANNELS 3 Zrotation Yrotation Xrotation
						End Site
						{
							OFFSET -0.00000 -0.00000 1.22113
						}
					}
				}
			}
		}
	}
	JOINT LowerBack
	{
		OFFSET 0 0 0
		CHANNELS 3 Zrotation Yrotation Xrotation
		JOINT Spine
		{
			OFFSET 0.04294 2.14638 -0.31163
			CHANNELS 3 Zrotation Yrotation Xrotation
			JOINT Spine1
			{
				OFFSET -0.00400 2.17216 0.01486
				CHANNELS 3 Zrotation Yrotation Xrotation
				JOINT Neck
				{
					OFFSET 0 0 0
					CHANNELS 3 Zrotation Yrotation Xrotation
					JOINT Neck1
					{
						OFFSET 0.03869 1.76598 0.14916
						CHANNELS 3 Zrotation Yrotation Xrotation
						JOINT Head
						{
							OFFSET -0.00760 1.75513 -0.18948
							CHANNELS 3 Zrotation Yrotation Xrotation
							End Site
							{
								OFFSET -0.00601 1.82444 -0.08310
							}
						}
					}
				}
				JOINT LeftShoulder
				{
					OFFSET 0 0 0
					CHANNELS 3 Zrotation Yrotation Xrotation
					JOINT LeftArm
					{
						OFFSET 3.73696 0.92058 0.01733
						CHANNELS 3 Zrotation Yrotation Xrotation
						JOINT LeftForeArm
						{
							OFFSET 5.22771 -0.00000 0.00000
							CHANNELS 3 Zrotation Yrotation Xrotation
							JOINT LeftHand
							{
								OFFSET 3.45251 -0.00000 0.00000
								CHANNELS 3 Zrotation Yrotation Xrotation
								JOINT LeftFingerBase
								{
									OFFSET 0 0 0
									CHANNELS 3 Zrotation Yrotation Xrotation
									JOINT LeftHandIndex1
									{
										OFFSET 0.55212 -0.00000 0.00000
										CHANNELS 3 Zrotation Yrotation Xrotation
										End Site
										{
											OFFSET 0.44513 -0.00000 0.00000
										}
									}
								}
								JOINT LThumb
								{
									OFFSET 0 0 0
									CHANNELS 3 Zrotation Yrotation Xrotation
									End Site
									{
										OFFSET 0.45193 -0.00000 0.45193
									}
								}
							}
						}
					}
				}
				JOINT RightShoulder
				{
					OFFSET 0 0 0
					CHANNELS 3 Zrotation Yrotation Xrotation
					JOINT RightArm
					{
						OFFSET -3.63819 0.83094 -0.13694
						CHANNELS 3 Zrotation Yrotation Xrotation
						JOINT RightForeArm
						{
							OFFSET -5.23980 -0.00000 -0.00000
							CHANNELS 3 Zrotation Yrotation Xrotation
							JOINT RightHand
							{
								OFFSET -3.48042 -0.00000 -0.00000
								CHANNELS 3 Zrotation Yrotation Xrotation
								JOINT RightFingerBase
								{
									OFFSET 0 0 0
									CHANNELS 3 Zrotation Yrotation Xrotation
									JOINT RightHandIndex1
									{
										OFFSET -0.61871 -0.00000 0.00000
										CHANNELS 3 Zrotation Yrotation Xrotation
										End Site
										{
											OFFSET -0.49882 -0.00000 0.00000
										}
									}
								}
								JOINT RThumb
								{
									OFFSET 0 0 0
									CHANNELS 3 Zrotation Yrotation Xrotation
									End Site
									{
										OFFSET -0.50644 -0.00000 0.50644
									}
								}
							}
						}
					}
				}
			}
		}
	}
}
MOTION
Frames: 12
Frame Time: .0083333
45.9105 13.7352 -3.7952 0 0 0 0 0 0 -21 0 0 0 0 0 0 0 0 0 0 0 0 0 0 21 0 0 0 0 0 0 0 0 0 0 0 0 0 0 0 0 0 0 0 0 0 0 -16 0 0 21 0 0 11 0 0 0 -8 0 0 0 0 0 0 0 0 0 0 0 0 0 0 0 0 0 0 0 0 8 0 0 0 0 0 0 0 0 0 0 0 0 0 0 0 0 0
45.9105 13.7352 -3.7952 169.1270 84.6456 -174.1070 0.0000 0.0000 0.0000 -11.8146 -11.4572 -62.2426 15.1859 19.4350 75.7959 2.2242 -2.0434 -27.6758 0.4969 -4.5195 -12.5431 0.0000 0.0000 0.0000 12.2982 9.1543 -64.3076 -17.6168 -19.8633 83.0169 -3.2454 1.0745 -33.8869 -0.0250 1.0211 -2.8068 0.3881 -1.9369 28.9093 0.1464 -1.6719 6.9899 0.4811 -0.5190 -8.0933 2.0173 -0.8193 -4.7816 0.7911 -0.2829 -19.5485 -0.1120 0.0032 -5.1128 -0.0000 -0.0000 0.0000 -80.5652 -10.5763 36.1952 25.8016 -37.0121 -8.7680 -0.0000 0.0000 -23.5873 14.2194 13.3805 3.3560 -7.1250 0.0000 -0.0000 -11.9712 43.4416 0.4675 -0.0000 -0.0000 0.0000 83.0708 12.5264 33.8562 -27.3370 38.4986 -9.7081 0.0000 -0.0000 -6.3584 -21.2274 -7.3809 2.8566 7.1250 -0.0000 -0.0000 4.7742 -37.8522 0.8424
45.9089 13.7372 -3.7955 169.2670 84.6583 -173.9850 0.0000 0.0000 0.0000 -11.8091 -11.4351 -62.2221 15.1851 19.4349 75.7937 2.2242 -2.0017 -27.6865 0.5085 -4.5712 -12.6894 0.0000 0.0000 0.0000 12.3173 9.1506 -64.2842 -17.6240 -19.8641 83.0379 -3.2527 1.1216 -33.9130 -0.0230 0.9798 -2.6933 0.4017 -1.9317 28.9360 0.1495 -1.6584 7.0090 0.4722 -0.5119 -8.0851 1.9794 -0.8214 -4.7887 0.8298 -0.2760 -19.5932 -0.0939 0.0082 -5.1253 -0.0000 -0.0000 0.0000 -80.5787 -10.5954 36.2141 25.7854 -36.9960 -8.7582 -0.0000 0.0000 -23.6145 14.2996 13.3711 3.3734 -7.1250 0.0000 -0.0000 -11.8974 43.4407 0.4648 -0.0000 -0.0000 0.0000 83.0704 12.5520 33.8299 -27.3006 38.4644 -9.6856 0.0000 -0.0000 -6.3813 -21.2672 -7.3281 2.8422 7.1250 -0.0000 -0.0000 4.7345 -37.7986 0.8416
45.8870 13.7224 -3.7840 168.8980 84.2728 -173.9490 0.0000 0.0000 0.0000 -11.6595 -11.8428 -62.8564 15.2082 19.4403 75.8629 2.1900 -2.0428 -27.4561 0.5065 -4.5620 -12.6635 0.0000 0.0000 0.0000 12.2074 9.0036 -64.9807 -17.6760 -19.8700 83.1910 -3.2382 0.9583 -33.8799 -0.0243 1.0058 -2.7648 0.3886 -2.0442 28.6887 0.2049 -1.8173 6.8840 0.5937 -0.5927 -8.1028 2.0003 -0.8127 -4.7808 0.7975 -0.2688 -19.6020 -0.1078 0.0120 -5.1295 -0.0000 0.0000 0.0000 -80.5794 -10.5801 36.1898 25.7690 -36.9797 -8.7483 -0.0000 0.0000 -23.6516 14.4124 13.2975 3.3828 -7.1250 0.0000 -0.0000 -11.7783 43.3788 0.4783 -0.0000 0.0000 0.0000 83.0892 12.5508 33.8347 -27.2754 38.4405 -9.6698 0.0000 -0.0000 -6.3767 -21.2480 -7.3003 2.8286 7.1250 -0.0000 -0.0000 4.7477 -37.7676 0.8476
45.8890 13.7274 -3.7863 168.9890 84.3344 -173.9300 0.0000 0.0000 0.0000 -11.6858 -11.7893 -62.7293 15.1998 19.4383 75.8377 2.1968 -2.0409 -27.5001 0.5030 -4.5468 -12.6203 0.0000 0.0000 0.0000 12.2255 9.0272 -64.8496 -17.6685 -19.8692 83.1689 -3.2442 1.0142 -33.8969 -0.0233 0.9856 -2.7093 0.4027 -2.0235 28.7424 0.1978 -1.7832 6.9158 0.5664 -0.5752 -8.0940 1.9901 -0.8303 -4.8033 0.7982 -0.2924 -19.6082 -0.1052 0.0016 -5.1279 0.0000 0.0000 0.0000 -80.5861 -10.5871 36.2339 25.7589 -36.9696 -8.7423 -0.0000 0.0000 -23.7008 14.5313 13.3142 3.4160 -7.1250 0.0000 -0.0000 -11.6768 43.4083 0.4654 0.0000 0.0000 0.0000 83.0792 12.5380 33.7921 -27.2759 38.4411 -9.6702 0.0000 -0.0000 -6.3572 -21.2163 -7.3180 2.8308 7.1250 -0.0000 -0.0000 4.7767 -37.7845 0.8508
45.8843 13.7268 -3.7849 168.9740 84.2754 -173.8830 0.0000 0.0000 0.0000 -11.6605 -11.8587 -62.8206 15.2005 19.4385 75.8400 2.1916 -2.0428 -27.4663 0.5019 -4.5418 -12.6063 0.0000 0.0000 0.0000 12.2095 9.0075 -64.9511 -17.6777 -19.8702 83.1959 -3.2442 1.0046 -33.8996 -0.0229 0.9780 -2.6883 0.4102 -2.0400 28.7154 0.2074 -1.8029 6.9019 0.5793 -0.5852 -8.0963 1.9851 -0.8359 -4.8039 0.7952 -0.2996 -19.6252 -0.1052 -0.0011 -5.1331 0.0000 0.0000 0.0000 -80.5907 -10.5885 36.2545 25.7440 -36.9548 -8.7333 -0.0000 0.0000 -23.7467 14.6524 13.2893 3.4394 -7.1250 0.0000 -0.0000 -11.5628 43.3962 0.4643 0.0000 0.0000 0.0000 83.0816 12.5279 33.7715 -27.2653 38.4310 -9.6636 0.0000 -0.0000 -6.3529 -21.2022 -7.3163 2.8281 7.1250 -0.0000 -0.0000 4.7884 -37.7817 0.8532
45.8805 13.7271 -3.7843 168.9750 84.2376 -173.8400 0.0000 0.0000 0.0000 -11.6448 -11.9071 -62.8755 15.1939 19.4369 75.8201 2.1861 -2.0420 -27.4311 0.4999 -4.5329 -12.5808 0.0000 0.0000 0.0000 12.1982 8.9987 -65.0137 -17.6746 -19.8699 83.1868 -3.2402 0.9878 -33.8828 -0.0228 0.9747 -2.6793 0.4196 -2.0509 28.7037 0.2136 -1.8144 6.8925 0.5846 -0.5911 -8.1013 1.9802 -0.8423 -4.7974 0.7914 -0.3079 -19.6431 -0.1053 -0.0045 -5.1398 0.0000 -0.0000 0.0000 -80.5952 -10.5900 36.2775 25.7281 -36.9390 -8.7238 -0.0000 0.0000 -23.7935 14.7776 13.2678 3.4645 -7.1250 0.0000 -0.0000 -11.4460 43.3878 0.4618 0.0000 -0.0000 0.0000 83.0834 12.5089 33.7562 -27.2590 38.4251 -9.6597 0.0000 -0.0000 -6.3581 -21.1994 -7.3171 2.8280 7.1250 -0.0000 -0.0000 4.7910 -37.7823 0.8536
45.8780 13.7284 -3.7846 168.9840 84.2294 -173.8200 0.0000 0.0000 0.0000 -11.6422 -11.9262 -62.8856 15.1872 19.4353 75.7998 2.1836 -2.0364 -27.4158 0.4980 -4.5245 -12.5571 0.0000 0.0000 0.0000 12.1914 9.0035 -65.0274 -17.6705 -19.8694 83.1748 -3.2383 0.9818 -33.8743 -0.0226 0.9709 -2.6686 0.4298 -2.0530 28.7130 0.2147 -1.8138 6.8918 0.5801 -0.5908 -8.1070 1.9723 -0.8486 -4.7864 0.7900 -0.3157 -19.6623 -0.1042 -0.0076 -5.1476 0.0000 -0.0000 0.0000 -80.6010 -10.5950 36.3029 25.7108 -36.9217 -8.7134 -0.0000 0.0000 -23.8404 14.9044 13.2456 3.4898 -7.1250 0.0000 -0.0000 -11.3276 43.3791 0.4594 0.0000 -0.0000 0.0000 83.0839 12.4860 33.7427 -27.2553 38.4216 -9.6574 0.0000 -0.0000 -6.3646 -21.2022 -7.3201 2.8296 7.1250 -0.0000 -0.0000 4.7888 -37.7857 0.8528
45.8754 13.7295 -3.7851 168.9770 84.2230 -173.8170 0.0000 0.0000 0.0000 -11.6411 -11.9461 -62.8936 15.1801 19.4336 75.7785 2.1811 -2.0318 -27.4011 0.4954 -4.5125 -12.5232 0.0000 0.0000 0.0000 12.1820 9.0102 -65.0411 -17.6659 -19.8689 83.1612 -3.2358 0.9703 -33.8640 -0.0226 0.9697 -2.6654 0.4395 -2.0547 28.7263 0.2150 -1.8128 6.8903 0.5748 -0.5904 -8.1154 1.9645 -0.8532 -4.7704 0.7887 -0.3212 -19.6818 -0.1032 -0.0096 -5.1563 0.0000 0.0000 0.0000 -80.6081 -10.6033 36.3254 25.6918 -36.9028 -8.7019 -0.0000 0.0000 -23.8856 15.0308 13.2172 3.5133 -7.1250 0.0000 -0.0000 -11.2081 43.3638 0.4587 0.0000 0.0000 0.0000 83.0841 12.4595 33.7335 -27.2543 38.4206 -9.6567 0.0000 -0.0000 -6.3721 -21.2065 -7.3242 2.8318 7.1250 -0.0000 -0.0000 4.7857 -37.7904 0.8517
45.8726 13.7304 -3.7857 168.9360 84.2198 -173.8490 0.0000 0.0000 0.0000 -11.6440 -11.9657 -62.9011 15.1728 19.4319 75.7567 2.1787 -2.0244 -27.3875 0.4928 -4.5010 -12.4906 0.0000 0.0000 0.0000 12.1677 9.0200 -65.0570 -17.6616 -19.8684 83.1485 -3.2330 0.9534 -33.8536 -0.0227 0.9722 -2.6722 0.4465 -2.0543 28.7401 0.2149 -1.8099 6.8892 0.5699 -0.5889 -8.1237 1.9536 -0.8574 -4.7564 0.7875 -0.3263 -19.6978 -0.1016 -0.0112 -5.1635 0.0000 -0.0000 0.0000 -80.6187 -10.6166 36.3467 25.6719 -36.8829 -8.6900 -0.0000 0.0000 -23.9256 15.1531 13.1901 3.5361 -7.1250 0.0000 -0.0000 -11.0925 43.3496 0.4578 0.0000 -0.0000 0.0000 83.0807 12.4329 33.7242 -27.2555 38.4218 -9.6575 0.0000 -0.0000 -6.3756 -21.2020 -7.3318 2.8341 7.1250 -0.0000 -0.0000 4.7904 -37.7983 0.8516
45.8697 13.7310 -3.7864 168.8620 84.2182 -173.9140 0.0000 0.0000 0.0000 -11.6508 -11.9850 -62.9061 15.1658 19.4302 75.7357 2.1769 -2.0199 -27.3768 0.4896 -4.4864 -12.4493 0.0000 0.0000 0.0000 12.1492 9.0314 -65.0727 -17.6580 -19.8680 83.1379 -3.2307 0.9366 -33.8457 -0.0228 0.9744 -2.6782 0.4502 -2.0529 28.7568 0.2134 -1.8067 6.8875 0.5654 -0.5874 -8.1339 1.9465 -0.8593 -4.7426 0.7831 -0.3291 -19.7079 -0.1017 -0.0119 -5.1689 -0.0000 0.0000 0.0000 -80.6299 -10.6299 36.3645 25.6525 -36.8635 -8.6784 -0.0000 0.0000 -23.9638 15.2745 13.1552 3.5565 -7.1250 0.0000 -0.0000 -10.9758 43.3272 0.4590 -0.0000 0.0000 0.0000 83.0756 12.4058 33.7174 -27.2564 38.4226 -9.6580 0.0000 -0.0000 -6.3735 -21.1924 -7.3361 2.8343 7.1250 -0.0000 -0.0000 4.7990 -37.8021 0.8527
45.8668 13.7316 -3.7872 168.7830 84.2194 -173.9850 0.0000 0.0000 0.0000 -11.6582 -12.0025 -62.9105 15.1589 19.4286 75.7149 2.1753 -2.0167 -27.3673 0.4861 -4.4706 -12.4046 0.0000 0.0000 0.0000 12.1294 9.0450 -65.0885 -17.6547 -19.8676 83.1282 -3.2286 0.9202 -33.8390 -0.0229 0.9769 -2.6853 0.4529 -2.0500 28.7728 0.2117 -1.8020 6.8868 0.5608 -0.5850 -8.1427 1.9407 -0.8603 -4.7365 0.7786 -0.3311 -19.7103 -0.1021 -0.0123 -5.1706 -0.0000 0.0000 0.0000 -80.6428 -10.6470 36.3795 25.6347 -36.8457 -8.6677 -0.0000 0.0000 -23.9998 15.3983 13.1181 3.5768 -7.1250 0.0000 -0.0000 -10.8566 43.3029 0.4605 -0.0000 0.0000 0.0000 83.0684 12.3834 33.7117 -27.2557 38.4220 -9.6576 0.0000 -0.0000 -6.3715 -21.1781 -7.3407 2.8339 7.1250 -0.0000 -0.0000 4.8117 -37.8061 0.8545
